REM DIRINDEX 1\2\3,1\2\4,1\2\5,1\2\6
REM DIRNAME cjc157,folder01,folder02,folder03,folder04,folder05
TITLE ""
FILE "071 071.mp3" MP3
  TRACK 01 AUDIO
    TITLE "0:"
    INDEX 01 00:00:00
  TRACK 02 AUDIO
    TITLE "3:cjc157_2653"
    INDEX 01 00:00:11
  TRACK 03 AUDIO
    TITLE "0:"
    INDEX 01 00:01:28
  TRACK 04 AUDIO
    TITLE "4:cjc157_2654"
    INDEX 01 00:02:00
  TRACK 05 AUDIO
    TITLE "0:"
    INDEX 01 00:03:19
  TRACK 06 AUDIO
    TITLE "5:cjc157_2655"
    INDEX 01 00:03:63
  TRACK 07 AUDIO
    TITLE "0:"
    INDEX 01 00:05:50
  TRACK 08 AUDIO
    TITLE "3:cjc157_2656"
    INDEX 01 00:06:20
  TRACK 09 AUDIO
    TITLE "0:"
    INDEX 01 00:07:51
  TRACK 10 AUDIO
    TITLE "4:cjc157_2657"
    INDEX 01 00:08:21
  TRACK 11 AUDIO
    TITLE "0:"
    INDEX 01 00:09:30
  TRACK 12 AUDIO
    TITLE "5:cjc157_2658"
    INDEX 01 00:10:00
  TRACK 13 AUDIO
    TITLE "0:"
    INDEX 01 00:11:56
  TRACK 14 AUDIO
    TITLE "5:cjc157_2659"
    INDEX 01 00:12:28
  TRACK 15 AUDIO
    TITLE "0:"
    INDEX 01 00:14:09
  TRACK 16 AUDIO
    TITLE "3:cjc157_2660"
    INDEX 01 00:14:56
  TRACK 17 AUDIO
    TITLE "0:"
    INDEX 01 00:16:00
  TRACK 18 AUDIO
    TITLE "4:cjc157_2661"
    INDEX 01 00:16:48
  TRACK 19 AUDIO
    TITLE "0:"
    INDEX 01 00:17:70
  TRACK 20 AUDIO
    TITLE "5:cjc157_2662"
    INDEX 01 00:18:39
  TRACK 21 AUDIO
    TITLE "0:"
    INDEX 01 00:20:24
  TRACK 22 AUDIO
    TITLE "5:cjc157_2663"
    INDEX 01 00:21:02
  TRACK 23 AUDIO
    TITLE "0:"
    INDEX 01 00:23:03
  TRACK 24 AUDIO
    TITLE "3:cjc157_2664"
    INDEX 01 00:23:46
  TRACK 25 AUDIO
    TITLE "0:"
    INDEX 01 00:24:72
  TRACK 26 AUDIO
    TITLE "4:cjc157_2665"
    INDEX 01 00:25:48
  TRACK 27 AUDIO
    TITLE "0:"
    INDEX 01 00:27:02
  TRACK 28 AUDIO
    TITLE "5:cjc157_2666"
    INDEX 01 00:27:51
  TRACK 29 AUDIO
    TITLE "0:"
    INDEX 01 00:30:05
  TRACK 30 AUDIO
    TITLE "5:cjc157_2667"
    INDEX 01 00:30:48
  TRACK 31 AUDIO
    TITLE "0:"
    INDEX 01 00:32:64
  TRACK 32 AUDIO
    TITLE "3:cjc157_2668"
    INDEX 01 00:33:28
  TRACK 33 AUDIO
    TITLE "0:"
    INDEX 01 00:34:57
  TRACK 34 AUDIO
    TITLE "4:cjc157_2669"
    INDEX 01 00:35:31
  TRACK 35 AUDIO
    TITLE "0:"
    INDEX 01 00:36:42
  TRACK 36 AUDIO
    TITLE "5:cjc157_2670"
    INDEX 01 00:37:12
  TRACK 37 AUDIO
    TITLE "0:"
    INDEX 01 00:39:60
  TRACK 38 AUDIO
    TITLE "3:cjc157_2671"
    INDEX 01 00:40:26
  TRACK 39 AUDIO
    TITLE "0:"
    INDEX 01 00:41:53
  TRACK 40 AUDIO
    TITLE "4:cjc157_2672"
    INDEX 01 00:42:21
  TRACK 41 AUDIO
    TITLE "0:"
    INDEX 01 00:43:56
  TRACK 42 AUDIO
    TITLE "5:cjc157_2673"
    INDEX 01 00:44:32
  TRACK 43 AUDIO
    TITLE "0:"
    INDEX 01 00:46:39
  TRACK 44 AUDIO
    TITLE "5:cjc157_2674"
    INDEX 01 00:47:15
  TRACK 45 AUDIO
    TITLE "0:"
    INDEX 01 00:50:50
  TRACK 46 AUDIO
    TITLE "3:cjc157_2675"
    INDEX 01 00:51:20
  TRACK 47 AUDIO
    TITLE "0:"
    INDEX 01 00:52:45
  TRACK 48 AUDIO
    TITLE "4:cjc157_2676"
    INDEX 01 00:53:23
  TRACK 49 AUDIO
    TITLE "0:"
    INDEX 01 00:54:46
  TRACK 50 AUDIO
    TITLE "5:cjc157_2677"
    INDEX 01 00:55:18
  TRACK 51 AUDIO
    TITLE "0:"
    INDEX 01 00:57:35
  TRACK 52 AUDIO
    TITLE "5:cjc157_2678"
    INDEX 01 00:58:11
  TRACK 53 AUDIO
    TITLE "0:"
    INDEX 01 01:00:04
  TRACK 54 AUDIO
    TITLE "3:cjc157_2679"
    INDEX 01 01:00:49
  TRACK 55 AUDIO
    TITLE "0:"
    INDEX 01 01:01:72
  TRACK 56 AUDIO
    TITLE "4:cjc157_2680"
    INDEX 01 01:02:44
  TRACK 57 AUDIO
    TITLE "0:"
    INDEX 01 01:03:53
  TRACK 58 AUDIO
    TITLE "5:cjc157_2681"
    INDEX 01 01:04:25
  TRACK 59 AUDIO
    TITLE "0:"
    INDEX 01 01:06:43
  TRACK 60 AUDIO
    TITLE "3:cjc157_2682"
    INDEX 01 01:07:15
  TRACK 61 AUDIO
    TITLE "0:"
    INDEX 01 01:08:29
  TRACK 62 AUDIO
    TITLE "4:cjc157_2683"
    INDEX 01 01:09:01
  TRACK 63 AUDIO
    TITLE "0:"
    INDEX 01 01:10:30
  TRACK 64 AUDIO
    TITLE "5:cjc157_2684"
    INDEX 01 01:11:00
  TRACK 65 AUDIO
    TITLE "0:"
    INDEX 01 01:12:64
  TRACK 66 AUDIO
    TITLE "3:cjc157_2685"
    INDEX 01 01:13:36
  TRACK 67 AUDIO
    TITLE "0:"
    INDEX 01 01:14:43
  TRACK 68 AUDIO
    TITLE "4:cjc157_2686"
    INDEX 01 01:15:15
  TRACK 69 AUDIO
    TITLE "0:"
    INDEX 01 01:16:18
  TRACK 70 AUDIO
    TITLE "5:cjc157_2687"
    INDEX 01 01:16:60
  TRACK 71 AUDIO
    TITLE "0:"
    INDEX 01 01:18:41
  TRACK 72 AUDIO
    TITLE "5:cjc157_2688"
    INDEX 01 01:19:13
  TRACK 73 AUDIO
    TITLE "0:"
    INDEX 01 01:21:69
